# xmcd
#
# Track frame offsets: 
#        150
#        12642
#        27897
#        38457
#        56050
#        71195
#        89057
#        109810
#        120502
#        134117
#
# Disc length: 2011 seconds
#
# Revision: 2
# Processed by: cddbd v1.4PL0 Copyright (c) Steve Scherf et al.
# Submitted via: ExactAudioCopy v0.90b4
#
DISCID=9107d90a
DTITLE=Jessi Colter - Collection
DYEAR=1900
DGENRE=Country
TTITLE0=Is There Any Way (You'd Stay Forever)
TTITLE1=That's The Way A Cowboy Rocks And Rolls
TTITLE2=What's Happened To Blue Eyes
TTITLE3=I Thought I Heard You Calling My Name
TTITLE4=I'm Not Lisa
TTITLE5=Without You
TTITLE6=Maybe You Should've Been Listening
TTITLE7=It's Morning (And I Still Love You)
TTITLE8=Hold Back The Tears
TTITLE9=Here I Am
EXTD=
EXTT0=Jessi Colter
EXTT1=Jessi Colter
EXTT2=Jessi Colter
EXTT3=Jessi Colter
EXTT4=Jessi Colter
EXTT5=Jessi Colter
EXTT6=Jessi Colter
EXTT7=Jessi Colter
EXTT8=Jessi Colter
EXTT9=Jessi Colter
PLAYORDER=
